<svg id="visual" viewBox="0 0 540 960" width="540" height="960" xmlns="http://www.w3.org/2000/svg" xmlns:xlink="http://www.w3.org/1999/xlink" version="1.1"><rect x="0" y="0" width="540" height="960" fill="#001220"></rect><defs><linearGradient id="grad1_0" x1="0%" y1="100%" x2="100%" y2="0%"><stop offset="30%" stop-color="#6dbcfd" stop-opacity="1"></stop><stop offset="70%" stop-color="#6dbcfd" stop-opacity="1"></stop></linearGradient></defs><defs><linearGradient id="grad1_1" x1="0%" y1="100%" x2="100%" y2="0%"><stop offset="30%" stop-color="#6dbcfd" stop-opacity="1"></stop><stop offset="70%" stop-color="#336086" stop-opacity="1"></stop></linearGradient></defs><defs><linearGradient id="grad1_2" x1="0%" y1="100%" x2="100%" y2="0%"><stop offset="30%" stop-color="#001220" stop-opacity="1"></stop><stop offset="70%" stop-color="#336086" stop-opacity="1"></stop></linearGradient></defs><defs><linearGradient id="grad2_0" x1="0%" y1="100%" x2="100%" y2="0%"><stop offset="30%" stop-color="#6dbcfd" stop-opacity="1"></stop><stop offset="70%" stop-color="#6dbcfd" stop-opacity="1"></stop></linearGradient></defs><defs><linearGradient id="grad2_1" x1="0%" y1="100%" x2="100%" y2="0%"><stop offset="30%" stop-color="#336086" stop-opacity="1"></stop><stop offset="70%" stop-color="#6dbcfd" stop-opacity="1"></stop></linearGradient></defs><defs><linearGradient id="grad2_2" x1="0%" y1="100%" x2="100%" y2="0%"><stop offset="30%" stop-color="#336086" stop-opacity="1"></stop><stop offset="70%" stop-color="#001220" stop-opacity="1"></stop></linearGradient></defs><g transform="translate(540, 960)"><path d="M-324 0C-315.5 -56.6 -307 -113.3 -280.6 -162C-254.2 -210.7 -209.8 -251.5 -160 -277.1C-110.2 -302.8 -55.1 -313.4 0 -324L0 0Z" fill="#193750"></path><path d="M-216 0C-210.3 -37.8 -204.7 -75.5 -187.1 -108C-169.4 -140.5 -139.8 -167.6 -106.7 -184.8C-73.5 -201.9 -36.7 -208.9 0 -216L0 0Z" fill="#4f8dc0"></path><path d="M-108 0C-105.2 -18.9 -102.3 -37.8 -93.5 -54C-84.7 -70.2 -69.9 -83.8 -53.3 -92.4C-36.7 -100.9 -18.4 -104.5 0 -108L0 0Z" fill="#6dbcfd"></path></g><g transform="translate(0, 0)"><path d="M324 0C315.6 56.8 307.2 113.5 280.6 162C254 210.5 209.3 250.6 159.5 276.3C109.7 301.9 54.9 312.9 0 324L0 0Z" fill="#193750"></path><path d="M216 0C210.4 37.8 204.8 75.7 187.1 108C169.3 140.3 139.5 167.1 106.3 184.2C73.1 201.3 36.6 208.6 0 216L0 0Z" fill="#4f8dc0"></path><path d="M108 0C105.2 18.9 102.4 37.8 93.5 54C84.7 70.2 69.8 83.5 53.2 92.1C36.6 100.6 18.3 104.3 0 108L0 0Z" fill="#6dbcfd"></path></g></svg>