<svg id="visual" viewBox="0 0 540 960" width="540" height="960" xmlns="http://www.w3.org/2000/svg" xmlns:xlink="http://www.w3.org/1999/xlink" version="1.1"><rect x="0" y="0" width="540" height="960" fill="#001220"></rect><path d="M0 828L8.2 823.8C16.3 819.7 32.7 811.3 49 806.3C65.3 801.3 81.7 799.7 98 798C114.3 796.3 130.7 794.7 147 797.3C163.3 800 179.7 807 196 813.2C212.3 819.3 228.7 824.7 245.2 820C261.7 815.3 278.3 800.7 294.8 793C311.3 785.3 327.7 784.7 344 791.2C360.3 797.7 376.7 811.3 393 811.2C409.3 811 425.7 797 442 794.2C458.3 791.3 474.7 799.7 491 796.2C507.3 792.7 523.7 777.3 531.8 769.7L540 762L540 961L531.8 961C523.7 961 507.3 961 491 961C474.7 961 458.3 961 442 961C425.7 961 409.3 961 393 961C376.7 961 360.3 961 344 961C327.7 961 311.3 961 294.8 961C278.3 961 261.7 961 245.2 961C228.7 961 212.3 961 196 961C179.7 961 163.3 961 147 961C130.7 961 114.3 961 98 961C81.7 961 65.3 961 49 961C32.7 961 16.3 961 8.2 961L0 961Z" fill="#6198ff"></path><path d="M0 810L8.2 811.5C16.3 813 32.7 816 49 822.7C65.3 829.3 81.7 839.7 98 842.8C114.3 846 130.7 842 147 836.2C163.3 830.3 179.7 822.7 196 820.5C212.3 818.3 228.7 821.7 245.2 829C261.7 836.3 278.3 847.7 294.8 844.2C311.3 840.7 327.7 822.3 344 820.7C360.3 819 376.7 834 393 835.3C409.3 836.7 425.7 824.3 442 821.5C458.3 818.7 474.7 825.3 491 832.8C507.3 840.3 523.7 848.7 531.8 852.8L540 857L540 961L531.8 961C523.7 961 507.3 961 491 961C474.7 961 458.3 961 442 961C425.7 961 409.3 961 393 961C376.7 961 360.3 961 344 961C327.7 961 311.3 961 294.8 961C278.3 961 261.7 961 245.2 961C228.7 961 212.3 961 196 961C179.7 961 163.3 961 147 961C130.7 961 114.3 961 98 961C81.7 961 65.3 961 49 961C32.7 961 16.3 961 8.2 961L0 961Z" fill="#2d77ff"></path><path d="M0 861L8.2 865.2C16.3 869.3 32.7 877.7 49 880.7C65.3 883.7 81.7 881.3 98 876.7C114.3 872 130.7 865 147 865.2C163.3 865.3 179.7 872.7 196 875.3C212.3 878 228.7 876 245.2 874.2C261.7 872.3 278.3 870.7 294.8 870.3C311.3 870 327.7 871 344 872.2C360.3 873.3 376.7 874.7 393 872.8C409.3 871 425.7 866 442 867.7C458.3 869.3 474.7 877.7 491 882C507.3 886.3 523.7 886.7 531.8 886.8L540 887L540 961L531.8 961C523.7 961 507.3 961 491 961C474.7 961 458.3 961 442 961C425.7 961 409.3 961 393 961C376.7 961 360.3 961 344 961C327.7 961 311.3 961 294.8 961C278.3 961 261.7 961 245.2 961C228.7 961 212.3 961 196 961C179.7 961 163.3 961 147 961C130.7 961 114.3 961 98 961C81.7 961 65.3 961 49 961C32.7 961 16.3 961 8.2 961L0 961Z" fill="#005de8"></path><path d="M0 909L8.2 906C16.3 903 32.7 897 49 896.3C65.3 895.7 81.7 900.3 98 901.2C114.3 902 130.7 899 147 897.2C163.3 895.3 179.7 894.7 196 898.2C212.3 901.7 228.7 909.3 245.2 911.3C261.7 913.3 278.3 909.7 294.8 904.2C311.3 898.7 327.7 891.3 344 889.5C360.3 887.7 376.7 891.3 393 893.3C409.3 895.3 425.7 895.7 442 897.7C458.3 899.7 474.7 903.3 491 906.7C507.3 910 523.7 913 531.8 914.5L540 916L540 961L531.8 961C523.7 961 507.3 961 491 961C474.7 961 458.3 961 442 961C425.7 961 409.3 961 393 961C376.7 961 360.3 961 344 961C327.7 961 311.3 961 294.8 961C278.3 961 261.7 961 245.2 961C228.7 961 212.3 961 196 961C179.7 961 163.3 961 147 961C130.7 961 114.3 961 98 961C81.7 961 65.3 961 49 961C32.7 961 16.3 961 8.2 961L0 961Z" fill="#004cbb"></path></svg>