<svg id="visual" viewBox="0 0 960 540" width="960" height="540" xmlns="http://www.w3.org/2000/svg" xmlns:xlink="http://www.w3.org/1999/xlink" version="1.1"><rect x="0" y="0" width="960" height="540" fill="#001220"></rect><path d="M0 419L16 426.7C32 434.3 64 449.7 96 450.5C128 451.3 160 437.7 192 433.8C224 430 256 436 288 436.5C320 437 352 432 384 427.8C416 423.7 448 420.3 480 428.7C512 437 544 457 576 455.3C608 453.7 640 430.3 672 416.8C704 403.3 736 399.7 768 408.5C800 417.3 832 438.7 864 446.8C896 455 928 450 944 447.5L960 445L960 541L944 541C928 541 896 541 864 541C832 541 800 541 768 541C736 541 704 541 672 541C640 541 608 541 576 541C544 541 512 541 480 541C448 541 416 541 384 541C352 541 320 541 288 541C256 541 224 541 192 541C160 541 128 541 96 541C64 541 32 541 16 541L0 541Z" fill="#6198ff"></path><path d="M0 487L16 479.2C32 471.3 64 455.7 96 445.7C128 435.7 160 431.3 192 437.5C224 443.7 256 460.3 288 466.8C320 473.3 352 469.7 384 469.8C416 470 448 474 480 474.2C512 474.3 544 470.7 576 471.3C608 472 640 477 672 471.5C704 466 736 450 768 439.5C800 429 832 424 864 432.8C896 441.7 928 464.3 944 475.7L960 487L960 541L944 541C928 541 896 541 864 541C832 541 800 541 768 541C736 541 704 541 672 541C640 541 608 541 576 541C544 541 512 541 480 541C448 541 416 541 384 541C352 541 320 541 288 541C256 541 224 541 192 541C160 541 128 541 96 541C64 541 32 541 16 541L0 541Z" fill="#2d77ff"></path><path d="M0 475L16 481C32 487 64 499 96 501.8C128 504.7 160 498.3 192 491.5C224 484.7 256 477.3 288 479.5C320 481.7 352 493.3 384 498.2C416 503 448 501 480 500.5C512 500 544 501 576 500.3C608 499.7 640 497.3 672 496.7C704 496 736 497 768 497.3C800 497.7 832 497.3 864 491C896 484.7 928 472.3 944 466.2L960 460L960 541L944 541C928 541 896 541 864 541C832 541 800 541 768 541C736 541 704 541 672 541C640 541 608 541 576 541C544 541 512 541 480 541C448 541 416 541 384 541C352 541 320 541 288 541C256 541 224 541 192 541C160 541 128 541 96 541C64 541 32 541 16 541L0 541Z" fill="#005de8"></path><path d="M0 503L16 503.8C32 504.7 64 506.3 96 509.5C128 512.7 160 517.3 192 519.2C224 521 256 520 288 518.3C320 516.7 352 514.3 384 510.7C416 507 448 502 480 504.8C512 507.7 544 518.3 576 523.3C608 528.3 640 527.7 672 526.7C704 525.7 736 524.3 768 521.8C800 519.3 832 515.7 864 516.3C896 517 928 522 944 524.5L960 527L960 541L944 541C928 541 896 541 864 541C832 541 800 541 768 541C736 541 704 541 672 541C640 541 608 541 576 541C544 541 512 541 480 541C448 541 416 541 384 541C352 541 320 541 288 541C256 541 224 541 192 541C160 541 128 541 96 541C64 541 32 541 16 541L0 541Z" fill="#004cbb"></path></svg>