<svg id="visual" viewBox="0 0 540 960" width="540" height="960" xmlns="http://www.w3.org/2000/svg" xmlns:xlink="http://www.w3.org/1999/xlink" version="1.1"><rect width="540" height="960" fill="#001829"></rect><g><g transform="translate(5 777)"><path d="M0 -70L60.6 -35L60.6 35L0 70L-60.6 35L-60.6 -35Z" fill="none" stroke="#297EA6" stroke-width="2"></path></g><g transform="translate(489 78)"><path d="M0 -44L38.1 -22L38.1 22L0 44L-38.1 22L-38.1 -22Z" fill="none" stroke="#297EA6" stroke-width="2"></path></g><g transform="translate(113 613)"><path d="M0 -45L39 -22.5L39 22.5L0 45L-39 22.5L-39 -22.5Z" fill="none" stroke="#297EA6" stroke-width="2"></path></g><g transform="translate(15 233)"><path d="M0 -68L58.9 -34L58.9 34L0 68L-58.9 34L-58.9 -34Z" stroke="#297EA6" fill="none" stroke-width="2"></path></g><g transform="translate(321 365)"><path d="M0 -64L55.4 -32L55.4 32L0 64L-55.4 32L-55.4 -32Z" stroke="#297EA6" fill="none" stroke-width="2"></path></g><g transform="translate(150 273)"><path d="M0 -47L40.7 -23.5L40.7 23.5L0 47L-40.7 23.5L-40.7 -23.5Z" stroke="#297EA6" fill="none" stroke-width="2"></path></g><g transform="translate(417 934)"><path d="M0 -56L48.5 -28L48.5 28L0 56L-48.5 28L-48.5 -28Z" stroke="#297EA6" fill="none" stroke-width="2"></path></g><g transform="translate(390 563)"><path d="M0 -68L58.9 -34L58.9 34L0 68L-58.9 34L-58.9 -34Z" stroke="#297EA6" fill="none" stroke-width="2"></path></g><g transform="translate(82 18)"><path d="M0 -43L37.2 -21.5L37.2 21.5L0 43L-37.2 21.5L-37.2 -21.5Z" stroke="#297EA6" fill="none" stroke-width="2"></path></g><g transform="translate(535 335)"><path d="M0 -67L58 -33.5L58 33.5L0 67L-58 33.5L-58 -33.5Z" stroke="#297EA6" fill="none" stroke-width="2"></path></g></g></svg>